# xmcd
#
# Track frame offsets:
#   150
#   16269
#   29935
#   45578
#   64496
#   79500
#   97249
#   115760
#   142492
#
# Disc length: 2136 seconds
#
# Revision: 0
# Processed by: cddbd v1.5.1PL2 Copyright (c) Steve Scherf et al.
# Submitted via: GXTranscoder 2.0.1939
#
DISCID=84085609
DTITLE=Bushido - ?
DYEAR=1900
DGENRE=Blues
TTITLE0=Sieh in meine Augen
TTITLE1=Gallus
TTITLE2=Wie ein Engel
TTITLE3=Schau mich an
TTITLE4=Waffendealer
TTITLE5=Ab 18 (Faet. Saad)
TTITLE6=Augenblick
TTITLE7=Flutopfer
TTITLE8=Schmetterling
EXTD=
EXTT0=
EXTT1=
EXTT2=
EXTT3=
EXTT4=
EXTT5=
EXTT6=
EXTT7=
EXTT8=
PLAYORDER=
